<svg version="1.1" xmlns="http://www.w3.org/2000/svg" xmlns:xlink="http://www.w3.org/1999/xlink" x="0px" y="0px" width="69.609px" height="58.749px" viewBox="0 0 69.609 58.749" enable-background="new 0 0 69.609 58.749" xml:space="preserve">
<g>
<path fill="#1C1C1C" d="M56.848,23.625l-4.546-4.672l4.573-4.703L49.51,6.722L17.221,40.065l5.907,6.074l-4.573,4.702l7.271,7.476
		l5.488-5.643l5.912,6.074l32.383-33.29l-7.273-7.476L56.848,23.625L56.848,23.625z M32.822,51.274l29.514-30.342l4.404,4.526
		L37.227,55.8L32.822,51.274L32.822,51.274z M24.494,44.592l-4.408-4.527L49.604,9.724l4.401,4.527L24.494,44.592L24.494,44.592z
		 M55.344,25.028l-29.518,30.34l-4.402-4.527L50.938,20.5L55.344,25.028L55.344,25.028z M7.272,40.766L39.76,7.516L32.385,0
		L0,33.292L7.272,40.766L7.272,40.766z M36.789,7.476L7.272,37.817l-4.403-4.526L32.385,2.951L36.789,7.476L36.789,7.476z"></path>
</g>
</svg>