<svg version="1.1" xmlns="http://www.w3.org/2000/svg" xmlns:xlink="http://www.w3.org/1999/xlink" x="0px" y="0px" width="57.414px" height="57.416px" viewBox="0 0 57.414 57.416" enable-background="new 0 0 57.414 57.416" xml:space="preserve">
<path fill="#1C1C1C" d="M57.414,28.708C57.414,12.878,44.537,0,28.705,0C12.875,0,0,12.878,0,28.708
	c0,15.829,12.875,28.708,28.705,28.708C44.537,57.416,57.414,44.537,57.414,28.708L57.414,28.708z M2.09,28.708
	c0-2.147,0.256-4.237,0.738-6.238l25.877,25.877l25.88-25.866c0.481,1.998,0.737,4.083,0.737,6.227
	c0,14.677-11.939,26.617-26.617,26.617C14.029,55.325,2.09,43.385,2.09,28.708L2.09,28.708z M14.07,30.754
	c3.326-4.565,8.471-7.232,14.635-7.232c5.961,0,11.272,2.817,14.682,7.188l-4.073,4.073c-2.387-3.276-6.251-5.413-10.608-5.413
	c-4.354,0-8.221,2.137-10.605,5.414L14.07,30.754L14.07,30.754z M28.705,31.679c3.721,0,7.006,1.89,8.952,4.758l-8.952,8.952
	l-8.95-8.951C21.701,33.57,24.987,31.679,28.705,31.679L28.705,31.679z M53.92,20.175l-8.893,8.891
	c-3.836-4.784-9.726-7.854-16.322-7.854c-6.594,0-12.484,3.07-16.322,7.856l-8.891-8.893C7.055,9.671,17.012,2.091,28.705,2.091
	C40.4,2.091,50.357,9.671,53.92,20.175L53.92,20.175z"></path>
</svg>