<svg version="1.1" xmlns="http://www.w3.org/2000/svg" xmlns:xlink="http://www.w3.org/1999/xlink" x="0px" y="0px" width="51.511px" height="47.095px" viewBox="0 0 51.511 47.095" enable-background="new 0 0 51.511 47.095" xml:space="preserve">
<path fill="#1C1C1C" d="M0,4.755l12.426,12.819L19.746,0l7.842,21.958l5.777-5.775l3.171,5.421L51.511,7.975v39.12h-0.06H0.123H0
	V4.755L0,4.755z M47.768,44.982L36.054,24.964l-10.346,9.393L13.117,21.404L3.293,44.982H47.768L47.768,44.982z M37.651,23.513
	l11.747,20.072V12.851L37.651,23.513L37.651,23.513z M14.024,19.225l11.774,12.15l9.141-8.317l-2.018-3.445l-6.2,6.199L19.596,5.856
	L14.024,19.225L14.024,19.225z M2.113,10.082v32.241l9.402-22.567L2.113,10.082L2.113,10.082z"></path>
</svg>