<svg version="1.1" xmlns="http://www.w3.org/2000/svg" xmlns:xlink="http://www.w3.org/1999/xlink" x="0px" y="0px" width="64.413px" height="64.254px" viewBox="0 0 64.413 64.254" enable-background="new 0 0 64.413 64.254" xml:space="preserve">
<path fill="#1C1C1C" d="M32.284,64.254l32.129-32.127L32.284,0L0,32.127L32.284,64.254L32.284,64.254z M17.157,18.116l6.163,6.165
	L9.311,38.292l-6.165-6.165L17.157,18.116L17.157,18.116z M24.813,25.774l6.353,6.353L17.155,46.138l-6.352-6.353L24.813,25.774
	L24.813,25.774z M55.259,38.292L32.284,15.317l-7.471,7.469l-6.163-6.164L32.284,2.988l29.141,29.14L55.259,38.292L55.259,38.292z
	 M53.766,39.786l-21.481,21.48L18.65,47.631l15.504-15.504l-7.846-7.847l5.976-5.976L53.766,39.786L53.766,39.786z"></path>
</svg>